<svg xmlns="http://www.w3.org/2000/svg" version="1.1" xmlns:xlink="http://www.w3.org/1999/xlink" xmlns:svgjs="http://svgjs.com/svgjs" width="1440" height="560" preserveAspectRatio="none" viewBox="0 0 1440 560"><g mask="url(&quot;#SvgjsMask1002&quot;)" fill="none"><rect width="1440" height="560" x="0" y="0" fill="rgba(28, 34, 75, 1)"></rect><path d="M0,508.896C96.387,506.921,122.475,366.857,194.793,303.104C252.516,252.217,339.023,238.627,380.268,173.663C423.918,104.911,434.442,19.745,426.129,-61.268C417.601,-144.376,391.166,-228.592,332.854,-288.42C275.899,-346.856,191.772,-363.803,112.48,-383.073C36.535,-401.53,-39.404,-408.756,-116.773,-397.692C-204.422,-385.157,-311.334,-386.52,-363.529,-314.999C-416.093,-242.973,-357.241,-141.433,-368.354,-52.961C-379.176,33.197,-464.068,116.472,-427.627,195.291C-391.155,274.176,-270.073,259.796,-199.991,311.192C-122.838,367.773,-95.657,510.856,0,508.896" fill="#161b3c"></path><path d="M1440 1144.853C1547.6779999999999 1147.08 1617.241 1033.548 1714.2060000000001 986.673 1829.373 930.999 2002.818 957.4549999999999 2062.111 844.1089999999999 2120.639 732.225 2027.0140000000001 598.975 1977.858 482.668 1938.757 390.153 1878.73 312.366 1807.461 241.59300000000002 1740.812 175.40800000000002 1664.774 124.882 1579.006 86.58999999999997 1481.787 43.186000000000035 1382.966-5.19399999999996 1276.963 4.748000000000047 1159.7939999999999 15.736999999999966 1038.189 56.11500000000001 960.5930000000001 144.59199999999998 882.861 233.22500000000002 865.042 359.14099999999996 862.784 477.009 860.704 585.59 890.953 692.332 948.3330000000001 784.537 1001.3330000000001 869.702 1092.08 916.183 1172.989 975.477 1259.761 1039.068 1332.444 1142.6280000000002 1440 1144.853" fill="#22295a"></path></g><defs><mask id="SvgjsMask1002"><rect width="1440" height="560" fill="#ffffff"></rect></mask></defs></svg>